<mxfile host="app.diagrams.net" modified="2024-05-29T08:54:21.748Z" agent="Mozilla/5.0 (Windows NT 10.0; Win64; x64) AppleWebKit/537.36 (KHTML, like Gecko) Chrome/125.0.0.0 Safari/537.36" version="24.4.9" etag="6xTqSfAIUxT-DlM9g8kL" type="github">
  <diagram name="第 1 页" id="0LxmPnvrmMMGMxHu9FxR">
    <mxGraphModel>
      <root>
        <mxCell id="0" />
        <mxCell id="1" parent="0" />
      </root>
    </mxGraphModel>
  </diagram>
</mxfile>
